<svg width="300" height="300" viewBox="0 0 300 300" fill="none" xmlns="http://www.w3.org/2000/svg">
<path d="M240.855 95.5652L240.75 95.4826L233.705 90.1022C233.259 89.7585 232.903 89.3166 232.666 88.8128C232.43 88.3091 232.319 87.7578 232.344 87.2044V84.6913C232.321 84.1413 232.433 83.5941 232.67 83.0945C232.907 82.5949 233.263 82.1572 233.707 81.8174L240.75 76.4348L240.855 76.3522C241.941 75.471 242.67 74.2423 242.911 72.8858C243.152 71.5293 242.89 70.1334 242.172 68.9478L232.638 52.8826C232.627 52.8675 232.618 52.8515 232.609 52.8348C231.887 51.6656 230.767 50.7797 229.444 50.3309C228.121 49.8822 226.678 49.8989 225.366 50.3783L225.288 50.4065L217.007 53.6522C216.484 53.858 215.919 53.9399 215.357 53.8911C214.795 53.8424 214.254 53.6644 213.777 53.3717C213.045 52.9225 212.301 52.4978 211.545 52.0978C211.054 51.839 210.634 51.4716 210.316 51.0252C209.999 50.5789 209.793 50.0661 209.716 49.5283L208.469 40.9217L208.442 40.7652C208.17 39.4322 207.436 38.2308 206.362 37.363C205.288 36.4953 203.94 36.0139 202.545 36H183.455C182.04 36.0044 180.672 36.495 179.592 37.3854C178.512 38.2759 177.789 39.5089 177.551 40.8674L177.531 40.9891L176.288 49.613C176.212 50.1494 176.008 50.6609 175.693 51.107C175.378 51.5531 174.96 51.9214 174.473 52.1826C173.715 52.5803 172.971 53.0023 172.241 53.4478C171.765 53.7387 171.225 53.9153 170.665 53.9633C170.105 54.0113 169.541 53.9293 169.02 53.7239L160.732 50.463L160.654 50.4326C159.34 49.9528 157.896 49.9366 156.571 50.3871C155.246 50.8375 154.126 51.7259 153.404 52.8978L153.375 52.9457L143.828 69.0217C143.109 70.2086 142.846 71.606 143.087 72.9641C143.329 74.3222 144.058 75.5524 145.145 76.4348L145.25 76.5174L152.295 81.8978C152.741 82.2415 153.097 82.6834 153.334 83.1872C153.57 83.6909 153.681 84.2422 153.656 84.7957V87.3087C153.679 87.8587 153.567 88.4059 153.33 88.9055C153.093 89.4052 152.737 89.8428 152.292 90.1826L145.25 95.5652L145.145 95.6478C144.059 96.529 143.33 97.7577 143.089 99.1142C142.848 100.471 143.11 101.867 143.828 103.052L153.362 119.117C153.373 119.133 153.382 119.149 153.391 119.165C154.113 120.334 155.233 121.22 156.556 121.669C157.879 122.118 159.322 122.101 160.634 121.622L160.712 121.593L168.987 118.348C169.509 118.142 170.075 118.06 170.636 118.109C171.198 118.158 171.739 118.336 172.217 118.628C172.949 119.079 173.693 119.504 174.449 119.902C174.939 120.161 175.36 120.528 175.677 120.975C175.995 121.421 176.2 121.934 176.277 122.472L177.518 131.078L177.545 131.235C177.817 132.57 178.553 133.773 179.63 134.641C180.707 135.509 182.058 135.989 183.455 136H202.545C203.96 135.996 205.328 135.505 206.408 134.615C207.488 133.724 208.21 132.491 208.449 131.133L208.469 131.011L209.712 122.387C209.789 121.85 209.995 121.337 210.312 120.891C210.629 120.445 211.049 120.077 211.538 119.817C212.301 119.417 213.047 118.993 213.77 118.552C214.246 118.261 214.786 118.085 215.346 118.037C215.906 117.989 216.47 118.071 216.991 118.276L225.279 121.526L225.357 121.557C226.671 122.037 228.116 122.054 229.441 121.603C230.766 121.153 231.886 120.264 232.607 119.091C232.616 119.075 232.626 119.059 232.636 119.043L242.169 102.98C242.89 101.794 243.154 100.396 242.913 99.0372C242.672 97.6785 241.943 96.4477 240.855 95.5652ZM210.837 86.8174C210.674 90.1839 209.511 93.4318 207.488 96.1663C205.466 98.9008 202.671 101.004 199.443 102.22C196.216 103.436 192.695 103.713 189.31 103.016C185.924 102.32 182.819 100.68 180.372 98.2972C177.925 95.914 176.242 92.8897 175.527 89.5922C174.813 86.2947 175.097 82.8659 176.346 79.723C177.595 76.58 179.755 73.8582 182.563 71.8885C185.371 69.9188 188.706 68.7862 192.163 68.6283C194.645 68.5218 197.122 68.9195 199.437 69.796C201.752 70.6725 203.855 72.0085 205.611 73.7193C207.368 75.43 208.739 77.478 209.639 79.733C210.539 81.9879 210.947 84.4005 210.837 86.8174Z" fill="white"/>
<path d="M186.913 87.999C185.701 87.0346 184.288 86.3734 182.787 86.0675C181.285 85.7615 179.735 85.8191 178.258 86.2357L101.926 107.419C99.2773 108.154 96.9402 109.776 95.282 112.031C93.6238 114.286 92.7386 117.046 92.7653 119.877V209.23C92.7653 211.895 91.0956 214.196 88.5106 215.094L88.4647 215.113L68.5505 222.23C60.9333 224.859 56.0007 232.161 56.0007 240.824C55.9728 244.347 56.7666 247.826 58.315 250.966C59.8634 254.106 62.1209 256.815 64.897 258.865C68.4719 261.546 72.7754 262.993 77.194 263C79.5056 262.996 81.8013 262.605 83.9916 261.842L84.1371 261.79L92.5011 258.651C96.1293 257.401 99.2873 255.009 101.532 251.812C103.778 248.615 104.997 244.773 105.02 240.824V157.006C105.02 154.124 106.847 151.783 109.677 151.048L109.758 151.024L176.635 132.585C176.861 132.524 177.097 132.518 177.326 132.567C177.554 132.615 177.769 132.717 177.954 132.864C178.138 133.011 178.288 133.2 178.391 133.416C178.495 133.632 178.549 133.87 178.55 134.111V190.225C178.55 192.894 176.922 195.12 174.295 196.029L174.199 196.065L154.71 203.225C150.92 204.512 147.625 207.01 145.301 210.358C142.978 213.707 141.746 217.732 141.785 221.85C141.751 225.384 142.541 228.875 144.09 232.027C145.638 235.178 147.899 237.899 150.681 239.958C153.405 241.991 156.563 243.316 159.888 243.822C163.213 244.328 166.607 243.999 169.783 242.864L169.921 242.817L178.285 239.673C181.913 238.424 185.071 236.033 187.316 232.837C189.561 229.64 190.781 225.799 190.804 221.85V96.1554C190.813 94.5775 190.466 93.0193 189.79 91.6037C189.115 90.1881 188.13 88.9541 186.913 87.999Z" fill="#2A207B"/>
</svg>
