<svg width="300" height="300" viewBox="0 0 300 300" fill="none" xmlns="http://www.w3.org/2000/svg">
<circle cx="150" cy="150" r="144" fill="white" stroke="black" stroke-width="2"/>
<path d="M134.4 104.4L278.4 104.64" stroke="#6E64BF" stroke-width="2"/>
<path d="M134.4 129H278.4" stroke="#6E64BF" stroke-width="2"/>
<path d="M134.4 153H278.4" stroke="#6E64BF" stroke-width="2"/>
<path d="M134.4 177H278.4" stroke="#6E64BF" stroke-width="2"/>
<path d="M134.4 202.2H278.4" stroke="#6E64BF" stroke-width="2"/>
<path d="M123.6 153.6H84" stroke="#220728" stroke-width="2" stroke-miterlimit="10"/>
<path d="M85.2 168H104.808L123.6 176.4" stroke="#220728" stroke-width="2" stroke-miterlimit="10"/>
<path d="M123.6 201.6H103.991L85.2 189.6" stroke="#220728" stroke-width="2" stroke-miterlimit="10"/>
<path d="M85.2 139.2H105.6L126 129.6" stroke="#220728" stroke-width="2" stroke-miterlimit="10"/>
<path d="M123.6 104.4H104.4L85.2 116.4" stroke="#220728" stroke-width="2" stroke-miterlimit="10"/>
<path d="M129 156C130.657 156 132 154.657 132 153C132 151.343 130.657 150 129 150C127.343 150 126 151.343 126 153C126 154.657 127.343 156 129 156Z" stroke="#FFC548" stroke-width="4" stroke-miterlimit="10"/>
<path d="M129 180C130.657 180 132 178.657 132 177C132 175.343 130.657 174 129 174C127.343 174 126 175.343 126 177C126 178.657 127.343 180 129 180Z" stroke="#FFC548" stroke-width="4" stroke-miterlimit="10"/>
<path d="M129 205.2C130.657 205.2 132 203.857 132 202.2C132 200.543 130.657 199.2 129 199.2C127.343 199.2 126 200.543 126 202.2C126 203.857 127.343 205.2 129 205.2Z" stroke="#FFC548" stroke-width="4" stroke-miterlimit="10"/>
<path d="M129 132C130.657 132 132 130.657 132 129C132 127.343 130.657 126 129 126C127.343 126 126 127.343 126 129C126 130.657 127.343 132 129 132Z" stroke="#FFC548" stroke-width="4" stroke-miterlimit="10"/>
<path d="M129 106.8C130.657 106.8 132 105.457 132 103.8C132 102.143 130.657 100.8 129 100.8C127.343 100.8 126 102.143 126 103.8C126 105.457 127.343 106.8 129 106.8Z" stroke="#FFC548" stroke-width="4" stroke-miterlimit="10"/>
<path d="M79.1998 106.911C79.1998 104.721 78.7182 102.559 77.791 100.587C76.8639 98.6157 75.5153 96.8859 73.8465 95.5275C72.1776 94.1691 70.2317 93.2173 68.1547 92.7436C66.0777 92.2698 63.9235 92.2863 61.8535 92.7918C59.7836 93.2973 57.8517 94.2788 56.2026 95.6626C54.5535 97.0464 53.2301 98.7967 52.3316 100.782C51.433 102.768 50.9826 104.937 51.0142 107.127C51.0458 109.317 51.5585 111.471 52.5139 113.429C50.8277 112.462 48.9291 111.956 46.9991 111.959C40.2587 111.959 34.7438 118.173 34.7438 125.839C34.7159 129.44 35.9842 132.924 38.3039 135.618C37.4481 135.413 36.5724 135.307 35.6936 135.303C27.9115 135.303 21.6 143.215 21.6 152.969C21.6 162.723 27.9115 170.635 35.6936 170.635C36.5827 170.633 37.4687 170.528 38.3346 170.32C36.0148 173.014 34.7465 176.498 34.7744 180.099C34.7744 187.765 40.2893 193.979 47.0297 193.979C48.9597 193.982 50.8583 193.476 52.5446 192.509C51.5776 194.467 51.0547 196.624 51.0152 198.82C50.9757 201.016 51.4207 203.192 52.3167 205.185C53.2126 207.178 54.5362 208.935 56.1875 210.325C57.8389 211.714 59.7751 212.7 61.8501 213.207C63.9252 213.715 66.085 213.731 68.1669 213.254C70.2488 212.777 72.1984 211.82 73.8688 210.454C75.5393 209.089 76.887 207.351 77.8104 205.372C78.7338 203.392 79.2089 201.223 79.1998 199.027C79.1998 198.812 79.1998 198.604 79.1998 198.396V107.542C79.1998 107.334 79.1998 107.126 79.1998 106.911Z" fill="white" stroke="#220728" stroke-width="4" stroke-linejoin="bevel"/>
<path d="M55.2 209.276C57.7047 212.045 61.1018 213.6 64.644 213.6C68.1862 213.6 71.5834 212.045 74.0881 209.276C76.5928 206.508 77.9999 202.753 77.9999 198.838C77.9999 194.923 76.5928 191.168 74.0881 188.4H66.6037" fill="white"/>
<path d="M55.2 209.276C57.7047 212.045 61.1018 213.6 64.644 213.6C68.1862 213.6 71.5834 212.045 74.0881 209.276C76.5928 206.508 77.9999 202.753 77.9999 198.838C77.9999 194.923 76.5928 191.168 74.0881 188.4H66.6037" stroke="#220728" stroke-width="4" stroke-miterlimit="10"/>
<path d="M54 96.6321C56.6575 93.9003 60.2339 92.3797 63.9527 92.4002C67.6714 92.4208 71.2323 93.9809 73.8623 96.7419C76.4923 99.5029 77.979 103.242 77.9998 107.147C78.0205 111.052 76.5735 114.808 73.973 117.6H67.1455" fill="white"/>
<path d="M54 96.6321C56.6575 93.9003 60.2339 92.3797 63.9527 92.4002C67.6714 92.4208 71.2323 93.9809 73.8623 96.7419C76.4923 99.5029 77.979 103.242 77.9998 107.147C78.0205 111.052 76.5735 114.808 73.973 117.6H67.1455" stroke="#220728" stroke-width="4" stroke-miterlimit="10"/>
<path d="M78 150H62.6696L43.2 169.2" fill="white"/>
<path d="M78 150H62.6696L43.2 169.2" stroke="#220728" stroke-width="4" stroke-miterlimit="10"/>
<path d="M40.7999 145.2L51.5999 160.8" stroke="#220728" stroke-width="4" stroke-miterlimit="10"/>
<path d="M51.6 193.2L58.8 182.4" stroke="#220728" stroke-width="4" stroke-miterlimit="10"/>
<path d="M51.6 112.8L56.4 121.508V134.4" fill="white"/>
<path d="M51.6 112.8L56.4 121.508V134.4" stroke="#220728" stroke-width="4" stroke-miterlimit="10"/>
<path d="M233.269 97.5587C232.527 96.9869 231.662 96.595 230.743 96.4136C229.824 96.2323 228.875 96.2664 227.972 96.5133L181.256 109.071C179.635 109.507 178.205 110.468 177.19 111.805C176.175 113.142 175.634 114.778 175.65 116.456V169.425C175.65 171.005 174.628 172.369 173.046 172.901L173.018 172.913L160.83 177.131C156.169 178.69 153.15 183.019 153.15 188.154C153.133 190.243 153.619 192.305 154.566 194.166C155.514 196.027 156.896 197.633 158.595 198.849C160.782 200.438 163.416 201.296 166.12 201.3C167.535 201.298 168.94 201.066 170.28 200.613L170.37 200.583L175.488 198.722C177.709 197.981 179.641 196.563 181.015 194.668C182.389 192.773 183.136 190.495 183.15 188.154V138.466C183.15 136.758 184.268 135.37 186 134.934L186.049 134.92L226.978 123.989C227.116 123.953 227.261 123.95 227.401 123.978C227.541 124.007 227.672 124.067 227.785 124.155C227.898 124.242 227.99 124.354 228.053 124.482C228.116 124.61 228.15 124.751 228.15 124.894V158.159C228.15 159.741 227.154 161.06 225.546 161.599L225.487 161.62L213.56 165.865C211.241 166.628 209.224 168.109 207.802 170.094C206.38 172.079 205.626 174.465 205.65 176.906C205.629 179.001 206.113 181.07 207.061 182.939C208.008 184.807 209.392 186.42 211.095 187.641C212.761 188.846 214.694 189.631 216.729 189.931C218.764 190.231 220.841 190.036 222.785 189.363L222.87 189.335L227.988 187.472C230.209 186.731 232.141 185.314 233.515 183.419C234.889 181.524 235.636 179.247 235.65 176.906V102.394C235.655 101.458 235.443 100.535 235.029 99.6955C234.616 98.8564 234.013 98.1248 233.269 97.5587Z" fill="#2A207B"/>
</svg>
